{
  "streams": [
    {
      "index": 0,
      "codec_name": "h264",
      "codec_long_name": "H.264 / AVC / MPEG-4 AVC / MPEG-4 part 10",
      "profile": "Main",
      "codec_type": "video",
      "codec_time_base": "1/50",
      "codec_tag_string": "[27][0][0][0]",
      "codec_tag": "0x001b",
      "width": 1920,
      "height": 1080,
      "coded_width": 1920,
      "coded_height": 1088,
      "closed_captions": 0,
      "has_b_frames": 2,
      "sample_aspect_ratio": "1:1",
      "display_aspect_ratio": "16:9",
      "pix_fmt": "yuv420p",
      "level": 40,
      "color_range": "tv",
      "color_space": "bt709",
      "color_transfer": "bt709",
      "color_primaries": "bt709",
      "chroma_location": "left",
      "field_order": "tt",
      "refs": 1,
      "is_avc": "false",
      "nal_length_size": "0",
      "id": "0x915",
      "r_frame_rate": "25/1",
      "avg_frame_rate": "25/1",
      "time_base": "1/90000",
      "start_pts": 18000,
      "start_time": "0.200000",
      "duration_ts": 273762000,
      "duration": "3041.800000",
      "bits_per_raw_sample": "8",
      "disposition": {
        "default": 0,
        "dub": 0,
        "original": 0,
        "comment": 0,
        "lyrics": 0,
        "karaoke": 0,
        "forced": 0,
        "hearing_impaired": 0,
        "visual_impaired": 0,
        "clean_effects": 0,
        "attached_pic": 0,
        "timed_thumbnails": 0
      }
    },
    {
      "index": 1,
      "codec_name": "ac3",
      "codec_long_name": "ATSC A/52A (AC-3)",
      "codec_type": "audio",
      "codec_time_base": "1/48000",
      "codec_tag_string": "[6][0][0][0]",
      "codec_tag": "0x0006",
      "sample_fmt": "fltp",
      "sample_rate": "48000",
      "channels": 2,
      "channel_layout": "stereo",
      "bits_per_sample": 0,
      "dmix_mode": "-1",
      "ltrt_cmixlev": "-1.000000",
      "ltrt_surmixlev": "-1.000000",
      "loro_cmixlev": "-1.000000",
      "loro_surmixlev": "-1.000000",
      "id": "0x917",
      "r_frame_rate": "0/0",
      "avg_frame_rate": "0/0",
      "time_base": "1/90000",
      "start_pts": 18000,
      "start_time": "0.200000",
      "duration_ts": 273761280,
      "duration": "3041.792000",
      "bit_rate": "192000",
      "disposition": {
        "default": 0,
        "dub": 0,
        "original": 0,
        "comment": 0,
        "lyrics": 0,
        "karaoke": 0,
        "forced": 0,
        "hearing_impaired": 0,
        "visual_impaired": 0,
        "clean_effects": 0,
        "attached_pic": 0,
        "timed_thumbnails": 0
      },
      "tags": {
        "language": "eng"
      }
    },
    {
      "index": 2,
      "codec_name": "mp2",
      "codec_long_name": "MP2 (MPEG audio layer 2)",
      "codec_type": "audio",
      "codec_time_base": "1/48000",
      "codec_tag_string": "[3][0][0][0]",
      "codec_tag": "0x0003",
      "sample_fmt": "fltp",
      "sample_rate": "48000",
      "channels": 2,
      "channel_layout": "stereo",
      "bits_per_sample": 0,
      "id": "0x916",
      "r_frame_rate": "0/0",
      "avg_frame_rate": "0/0",
      "time_base": "1/90000",
      "start_pts": 18000,
      "start_time": "0.200000",
      "duration_ts": 273760560,
      "duration": "3041.784000",
      "bit_rate": "160000",
      "disposition": {
        "default": 0,
        "dub": 0,
        "original": 0,
        "comment": 0,
        "lyrics": 0,
        "karaoke": 0,
        "forced": 0,
        "hearing_impaired": 0,
        "visual_impaired": 0,
        "clean_effects": 0,
        "attached_pic": 0,
        "timed_thumbnails": 0
      },
      "tags": {
        "language": "NAR"
      }
    }
  ],
  "chapters": [
  ],
  "format": {
    "filename": "http://192.168.0.107:7000/data/Euro_2020_-_France_vs._Switzerland/20210628-FRA-SWI-EK20_1EN.ts",
    "nb_streams": 3,
    "nb_programs": 1,
    "format_name": "mpegts",
    "format_long_name": "MPEG-TS (MPEG-2 Transport Stream)",
    "start_time": "0.200000",
    "duration": "3041.800000",
    "size": "3221950016",
    "bit_rate": "8473798",
    "probe_score": 50
  }
}
